<?xml version="1.0" standalone="no"?>
<!DOCTYPE svg PUBLIC "-//W3C//DTD SVG 20010904//EN"
 "http://www.w3.org/TR/2001/REC-SVG-20010904/DTD/svg10.dtd">
<svg version="1.0" xmlns="http://www.w3.org/2000/svg"
 width="700.000000pt" height="700.000000pt" viewBox="0 0 700.000000 700.000000"
 preserveAspectRatio="xMidYMid meet">
<metadata>
Created by potrace 1.14, written by Peter Selinger 2001-2017
</metadata>
<g transform="translate(0.000000,700.000000) scale(0.100000,-0.100000)"
fill="#000000" stroke="none">
<path d="M3278 6995 c-1 -1 -42 -5 -89 -9 -47 -4 -95 -8 -105 -10 -10 -2 -45
-7 -78 -11 -101 -12 -214 -35 -381 -76 -283 -71 -593 -197 -853 -346 -88 -50
-303 -188 -341 -219 -9 -7 -52 -41 -96 -75 -426 -331 -813 -825 -1020 -1299
-25 -58 -50 -114 -55 -125 -45 -93 -150 -427 -176 -560 -2 -11 -11 -54 -19
-95 -8 -41 -17 -89 -19 -105 -3 -17 -7 -46 -11 -66 -6 -40 -10 -74 -22 -199
-15 -162 -8 -591 12 -711 2 -13 6 -46 9 -74 26 -227 107 -537 208 -794 77
-196 224 -483 318 -621 92 -136 124 -180 191 -265 351 -447 831 -818 1349
-1042 134 -58 222 -91 375 -139 156 -50 368 -97 534 -120 25 -3 57 -8 71 -10
163 -25 682 -25 842 1 13 2 46 7 73 10 71 10 87 13 115 18 14 3 43 8 65 12 22
4 76 16 120 27 44 10 87 21 96 23 35 8 168 48 239 72 558 189 1087 540 1480
982 36 41 70 79 75 85 62 67 240 317 320 450 179 298 346 717 411 1031 16 75
54 300 60 350 4 33 9 76 11 95 8 71 10 517 3 595 -17 172 -22 220 -25 225 -2
3 -6 30 -10 60 -3 30 -10 71 -15 90 -5 19 -12 51 -15 70 -13 77 -66 272 -106
390 -400 1192 -1409 2081 -2639 2324 -41 8 -95 18 -120 21 -25 4 -54 9 -65 11
-10 2 -49 6 -85 10 -36 3 -78 8 -95 11 -33 5 -531 13 -537 8z m572 -239 c432
-49 881 -193 1251 -403 112 -63 341 -211 359 -232 3 -3 30 -25 60 -48 30 -23
69 -54 85 -68 17 -15 53 -46 80 -70 57 -49 222 -216 287 -290 112 -129 285
-370 361 -505 132 -232 265 -551 322 -770 9 -36 19 -72 21 -80 11 -40 53 -250
58 -290 3 -25 8 -56 11 -70 13 -68 19 -197 20 -420 0 -211 -9 -422 -20 -440
-1 -3 -6 -27 -9 -55 -46 -351 -194 -785 -378 -1110 -449 -790 -1174 -1349
-2044 -1575 -137 -36 -360 -75 -489 -86 -33 -3 -78 -7 -100 -9 -48 -5 -381 -5
-447 -1 -43 4 -76 7 -203 22 -22 2 -92 14 -155 25 -513 90 -990 301 -1410 623
-145 111 -154 119 -335 301 -246 246 -433 503 -589 808 -87 169 -184 407 -217
532 -4 17 -19 71 -33 121 -28 102 -61 260 -71 343 -4 30 -8 61 -10 70 -30 161
-28 686 5 881 5 30 11 72 15 93 9 67 52 258 69 312 1 6 6 24 10 40 12 47 65
202 104 300 111 288 304 617 502 859 91 111 331 357 410 419 26 21 56 47 67
56 65 61 318 234 458 313 76 43 309 158 321 158 3 0 24 8 47 19 133 58 387
138 547 170 30 6 66 14 80 17 35 7 56 11 125 19 33 4 62 9 65 10 3 2 44 7 90
10 47 4 87 9 89 11 6 6 529 -3 591 -10z"/>
<path d="M3208 6564 c-2 -1 -48 -5 -103 -8 -55 -4 -102 -12 -106 -18 -4 -5 -8
-54 -9 -107 -1 -53 -3 -127 -5 -166 -2 -38 -6 -153 -10 -255 -4 -102 -8 -215
-10 -253 -2 -37 0 -65 3 -63 6 4 25 6 152 21 24 3 45 7 47 9 2 1 5 61 8 132
14 390 17 449 19 451 0 1 26 -53 55 -120 92 -206 121 -271 133 -294 10 -20 20
-23 70 -24 32 -1 70 -2 86 -2 32 -2 26 -11 149 263 49 109 83 175 84 160 0
-14 2 -74 5 -135 9 -208 12 -290 13 -361 l1 -71 91 -12 c50 -7 96 -13 103 -14
12 -2 13 43 2 333 -3 102 -9 255 -12 340 -3 85 -7 160 -9 166 -2 7 -44 14
-102 19 -54 4 -117 9 -140 11 -41 4 -43 3 -59 -33 -42 -102 -167 -411 -174
-433 -8 -23 -9 -24 -15 -5 -4 11 -48 121 -98 245 l-92 225 -37 1 c-21 0 -39 0
-40 -2z"/>
<path d="M5015 5698 c-120 -188 -218 -347 -219 -354 -1 -7 37 -44 83 -83 83
-71 101 -78 136 -51 6 4 91 49 190 100 99 51 187 98 195 104 12 9 13 8 4 -4
-6 -8 -51 -91 -99 -185 -49 -93 -97 -186 -107 -205 -10 -19 -18 -38 -18 -42 0
-4 16 -24 35 -45 20 -21 52 -59 72 -85 21 -27 40 -48 44 -48 4 0 144 86 311
191 167 106 324 205 351 221 l47 30 -64 76 c-36 43 -71 77 -78 76 -7 -1 -108
-63 -223 -139 -116 -76 -215 -139 -221 -142 -6 -2 35 86 90 196 l102 199 -32
34 c-17 18 -49 50 -70 70 l-39 37 -206 -102 -206 -102 154 230 153 230 -42 38
c-24 20 -61 50 -84 66 l-40 30 -219 -341z"/>
<path d="M1527 5866 c-20 -7 -62 -33 -93 -56 -81 -63 -295 -295 -462 -502 -13
-17 -20 -9 144 -165 28 -26 107 -100 174 -163 67 -63 157 -147 199 -187 l76
-72 33 37 c34 37 209 224 299 318 144 152 173 186 198 238 50 103 32 202 -50
274 -19 18 -48 35 -63 39 -36 9 -111 10 -142 1 -25 -7 -25 -6 -25 56 -1 75
-30 129 -90 166 -46 28 -144 36 -198 16z m140 -195 c20 -26 15 -65 -13 -107
-26 -38 -44 -58 -232 -254 l-90 -95 -56 55 c-31 30 -56 57 -56 60 0 3 10 16
23 30 12 14 39 46 61 70 96 112 252 261 281 269 32 9 62 -1 82 -28z m253 -203
c24 -26 26 -65 3 -98 -17 -25 -116 -135 -265 -293 l-83 -87 -62 58 -62 58 187
192 c177 182 189 192 224 192 25 0 44 -7 58 -22z"/>
<path d="M3488 5575 c-2 -1 -57 -5 -123 -8 -244 -12 -472 -68 -717 -177 -496
-221 -900 -653 -1091 -1165 -29 -77 -74 -230 -83 -279 -3 -17 -9 -49 -14 -72
-5 -22 -12 -67 -16 -99 -3 -32 -8 -68 -10 -79 -6 -26 -6 -362 0 -396 2 -14 7
-49 11 -79 4 -30 9 -63 11 -75 2 -12 7 -34 10 -51 3 -16 14 -64 24 -105 191
-750 784 -1332 1540 -1509 47 -11 102 -23 123 -26 20 -3 54 -8 75 -11 20 -3
53 -7 72 -10 43 -5 343 -5 385 0 17 2 56 7 88 10 212 24 462 103 675 212 582
300 983 849 1097 1499 32 187 36 456 9 630 -38 242 -90 415 -185 613 -167 347
-432 645 -759 855 -272 173 -631 293 -940 312 -47 3 -106 7 -132 9 -26 2 -48
2 -50 1z m262 -131 c178 -26 284 -53 440 -111 393 -145 750 -438 977 -804 46
-73 136 -250 148 -289 4 -14 13 -38 20 -55 24 -54 62 -188 83 -290 25 -119 30
-157 38 -292 l7 -103 -982 0 -981 0 0 -981 0 -981 -102 6 c-395 22 -761 156
-1073 390 -324 243 -556 567 -684 951 -22 66 -42 131 -45 145 -2 14 -9 45 -15
70 -5 25 -13 68 -17 95 -3 28 -8 59 -10 70 -2 11 -7 68 -10 128 l-7 107 982 0
981 0 0 981 0 982 108 -7 c59 -3 123 -9 142 -12z"/>
</g>
</svg>
